<mxfile host="app.diagrams.net" modified="2023-03-26T17:38:19.698Z" agent="Mozilla/5.0 (X11; Linux x86_64; rv:109.0) Gecko/20100101 Firefox/111.0" etag="EDsGtYhbpRQp-VZq8Ns4" version="21.1.1" type="device">
  <diagram name="Page-1" id="_-O8Yo5lWuprdekXAq1J">
    <mxGraphModel dx="474" dy="754" grid="1" gridSize="10" guides="1" tooltips="1" connect="1" arrows="1" fold="1" page="1" pageScale="1" pageWidth="850" pageHeight="1100" math="0" shadow="0">
      <root>
        <mxCell id="0" />
        <mxCell id="1" parent="0" />
        <mxCell id="y8iXlyJuNqWaadY22ACT-22" value="" style="group;fillColor=none;" parent="1" vertex="1" connectable="0">
          <mxGeometry x="80" y="210" width="410" height="360" as="geometry" />
        </mxCell>
        <mxCell id="D_TlxQH4I1cXKsjpBnxX-2" value="&lt;div&gt;grammar :&lt;/div&gt;&lt;div&gt;[user_files]&lt;br&gt;&lt;/div&gt;" style="rounded=0;whiteSpace=wrap;html=1;fillColor=#ffe6cc;strokeColor=#d79b00;" parent="y8iXlyJuNqWaadY22ACT-22" vertex="1">
          <mxGeometry x="130" y="10" width="270" height="60" as="geometry" />
        </mxCell>
        <mxCell id="D_TlxQH4I1cXKsjpBnxX-3" value="&lt;div&gt;parser :&lt;br&gt;&lt;/div&gt;&lt;div&gt;p_parse()&lt;/div&gt;" style="rounded=0;whiteSpace=wrap;html=1;fillColor=#dae8fc;strokeColor=#6c8ebf;" parent="y8iXlyJuNqWaadY22ACT-22" vertex="1">
          <mxGeometry x="290" y="110" width="110" height="90" as="geometry" />
        </mxCell>
        <mxCell id="D_TlxQH4I1cXKsjpBnxX-4" value="&lt;div&gt;lexer :&lt;/div&gt;&lt;div&gt;p_lex()&lt;/div&gt;" style="rounded=0;whiteSpace=wrap;html=1;fillColor=#ffe6cc;strokeColor=#d79b00;" parent="y8iXlyJuNqWaadY22ACT-22" vertex="1">
          <mxGeometry x="130" y="110" width="120" height="90" as="geometry" />
        </mxCell>
        <mxCell id="D_TlxQH4I1cXKsjpBnxX-5" value="&lt;div&gt;parsley_lex.h&lt;/div&gt;" style="rounded=0;whiteSpace=wrap;html=1;horizontal=0;fillColor=#dae8fc;strokeColor=#6c8ebf;" parent="y8iXlyJuNqWaadY22ACT-22" vertex="1">
          <mxGeometry x="260" y="110" width="20" height="90" as="geometry" />
        </mxCell>
        <mxCell id="D_TlxQH4I1cXKsjpBnxX-6" value="parsley_grammar.h" style="rounded=0;whiteSpace=wrap;html=1;fillColor=#dae8fc;strokeColor=#6c8ebf;" parent="y8iXlyJuNqWaadY22ACT-22" vertex="1">
          <mxGeometry x="290" y="80" width="110" height="20" as="geometry" />
        </mxCell>
        <mxCell id="D_TlxQH4I1cXKsjpBnxX-7" value="[grammar]_symbols.h" style="rounded=0;whiteSpace=wrap;html=1;fillColor=#ffe6cc;strokeColor=#d79b00;" parent="y8iXlyJuNqWaadY22ACT-22" vertex="1">
          <mxGeometry x="130" y="80" width="120" height="20" as="geometry" />
        </mxCell>
        <mxCell id="D_TlxQH4I1cXKsjpBnxX-8" value="&amp;nbsp;main()" style="rounded=0;whiteSpace=wrap;html=1;fillColor=#ffe6cc;strokeColor=#d79b00;" parent="y8iXlyJuNqWaadY22ACT-22" vertex="1">
          <mxGeometry x="130" y="240" width="270" height="60" as="geometry" />
        </mxCell>
        <mxCell id="D_TlxQH4I1cXKsjpBnxX-10" value="parsley.h" style="rounded=0;whiteSpace=wrap;html=1;fillColor=#dae8fc;strokeColor=#6c8ebf;" parent="y8iXlyJuNqWaadY22ACT-22" vertex="1">
          <mxGeometry x="290" y="210" width="110" height="20" as="geometry" />
        </mxCell>
        <mxCell id="y8iXlyJuNqWaadY22ACT-5" value="" style="strokeWidth=2;html=1;shape=mxgraph.flowchart.annotation_1;align=right;pointerEvents=1;horizontal=0;verticalAlign=bottom;labelPosition=left;verticalLabelPosition=top;" parent="y8iXlyJuNqWaadY22ACT-22" vertex="1">
          <mxGeometry x="120" y="90" width="10" height="180" as="geometry" />
        </mxCell>
        <mxCell id="y8iXlyJuNqWaadY22ACT-13" value="" style="endArrow=none;html=1;rounded=0;entryX=0;entryY=0;entryDx=0;entryDy=0;entryPerimeter=0;" parent="y8iXlyJuNqWaadY22ACT-22" target="y8iXlyJuNqWaadY22ACT-5" edge="1">
          <mxGeometry width="50" height="50" relative="1" as="geometry">
            <mxPoint x="120" y="40" as="sourcePoint" />
            <mxPoint x="150" y="100" as="targetPoint" />
          </mxGeometry>
        </mxCell>
        <mxCell id="y8iXlyJuNqWaadY22ACT-14" value="" style="endArrow=none;html=1;rounded=0;entryX=0;entryY=0.5;entryDx=0;entryDy=0;" parent="y8iXlyJuNqWaadY22ACT-22" target="D_TlxQH4I1cXKsjpBnxX-2" edge="1">
          <mxGeometry width="50" height="50" relative="1" as="geometry">
            <mxPoint x="120" y="40" as="sourcePoint" />
            <mxPoint x="160" y="60" as="targetPoint" />
          </mxGeometry>
        </mxCell>
        <mxCell id="y8iXlyJuNqWaadY22ACT-15" value="&lt;font style=&quot;font-size: 10px;&quot;&gt;one can conveniently access the grammars symbols by including the symbols header in main &lt;/font&gt;" style="rounded=0;whiteSpace=wrap;html=1;opacity=0;horizontal=0;" parent="y8iXlyJuNqWaadY22ACT-22" vertex="1">
          <mxGeometry x="80" y="30" width="40" height="250" as="geometry" />
        </mxCell>
        <mxCell id="y8iXlyJuNqWaadY22ACT-16" value="provided by parsley" style="rounded=0;whiteSpace=wrap;html=1;fillColor=#dae8fc;strokeColor=#6c8ebf;" parent="y8iXlyJuNqWaadY22ACT-22" vertex="1">
          <mxGeometry x="90" y="330" width="150" height="20" as="geometry" />
        </mxCell>
        <mxCell id="y8iXlyJuNqWaadY22ACT-17" value="provided by the user" style="rounded=0;whiteSpace=wrap;html=1;fillColor=#ffe6cc;strokeColor=#d79b00;" parent="y8iXlyJuNqWaadY22ACT-22" vertex="1">
          <mxGeometry x="250" y="330" width="150" height="20" as="geometry" />
        </mxCell>
        <mxCell id="y8iXlyJuNqWaadY22ACT-18" value="" style="endArrow=none;html=1;rounded=0;" parent="y8iXlyJuNqWaadY22ACT-22" edge="1">
          <mxGeometry width="50" height="50" relative="1" as="geometry">
            <mxPoint x="90" y="320" as="sourcePoint" />
            <mxPoint x="400" y="320" as="targetPoint" />
          </mxGeometry>
        </mxCell>
      </root>
    </mxGraphModel>
  </diagram>
</mxfile>
